<svg id="Layer_1" data-name="Layer 1" xmlns="http://www.w3.org/2000/svg" viewBox="0 0 43.63 8.84"><defs><style>.cls-1{fill:#fff;}</style></defs><title>logo2</title><path class="cls-1" d="M47.69,21.49l3.16,8.84h-.67L47.7,23.27a.37.37,0,0,0-.7,0l-2.48,7.06h-.69L47,21.49Z" transform="translate(-43.83 -21.49)"/><path class="cls-1" d="M51.94,30v-8.1a.37.37,0,0,1,.37-.37h5.4v.58h-4.8a.37.37,0,0,0-.37.37v2.66a.37.37,0,0,0,.37.37h4.36V26H52.91a.37.37,0,0,0-.37.37v3a.37.37,0,0,0,.37.37h4.8v.57h-5.4A.37.37,0,0,1,51.94,30Z" transform="translate(-43.83 -21.49)"/><path class="cls-1" d="M61.18,30.33,58,21.49h.67l2.48,7.06a.37.37,0,0,0,.7,0l2.48-7.06H65l-3.18,8.84Z" transform="translate(-43.83 -21.49)"/><path class="cls-1" d="M66.13,30v-8.1a.37.37,0,0,1,.37-.37h5.4v.58H67.1a.37.37,0,0,0-.37.37v2.66a.37.37,0,0,0,.37.37h4.36V26H67.1a.37.37,0,0,0-.37.37v3a.37.37,0,0,0,.37.37h4.8v.57H66.5A.37.37,0,0,1,66.13,30Z" transform="translate(-43.83 -21.49)"/><path class="cls-1" d="M73,30.33V21.49h.82l4.66,7.08a.37.37,0,0,0,.68-.2V21.49h.6v8.84H79l-4.66-7a.37.37,0,0,0-.67.2v6.77Z" transform="translate(-43.83 -21.49)"/><path class="cls-1" d="M83.81,30.33V22.44a.37.37,0,0,0-.37-.37H80.79v-.58h6.68v.58H84.78a.37.37,0,0,0-.37.37v7.89Z" transform="translate(-43.83 -21.49)"/></svg>